<svg width="203" height="44" viewBox="0 0 203 44" fill="none" xmlns="http://www.w3.org/2000/svg">
<g clip-path="url(#clip0_70_41)">
<path d="M92.9627 7.9209H89.4575V29.4015H92.9627V7.9209Z" fill="black"/>
<path d="M126.414 21.1772C125.519 20.8501 124.533 20.5945 123.455 20.4095L122.387 20.2256C121.574 20.0823 120.927 19.8674 120.45 19.5808C119.972 19.2942 119.733 18.8441 119.733 18.2304C119.733 17.6572 119.977 17.2131 120.465 16.8954C120.954 16.5778 121.625 16.4202 122.478 16.4202C123.332 16.4202 124.085 16.6101 124.675 16.9874C125.265 17.3659 125.651 18.0154 125.835 18.936L128.763 18.1074C128.438 16.7987 127.731 15.7599 126.643 14.9934C125.555 14.2256 124.167 13.8423 122.479 13.8423C120.791 13.8423 119.328 14.2363 118.27 15.0232C117.213 15.8113 116.684 16.9205 116.684 18.3534C116.684 19.3145 116.928 20.1026 117.417 20.7163C117.905 21.3301 118.566 21.8113 119.399 22.1587C120.232 22.5074 121.158 22.7725 122.175 22.9575L123.213 23.1414C124.21 23.3253 124.963 23.5617 125.471 23.8471C125.979 24.1337 126.234 24.5838 126.234 25.1975C126.234 25.8113 125.964 26.3128 125.425 26.7008C124.885 27.0901 124.117 27.2835 123.122 27.2835C122.451 27.2835 121.825 27.1808 121.246 26.9766C120.666 26.7725 120.183 26.425 119.797 25.9331C119.411 25.4423 119.137 24.7772 118.973 23.9378L116.045 24.6435C116.33 26.3832 117.101 27.6811 118.363 28.5408C119.623 29.4005 121.21 29.8292 123.122 29.8292C125.033 29.8292 126.517 29.4089 127.637 28.5707C128.755 27.7325 129.314 26.5551 129.314 25.0411C129.314 24.0178 129.054 23.1999 128.535 22.5862C128.017 21.9725 127.31 21.502 126.415 21.1748L126.414 21.1772Z" fill="black"/>
<path d="M157.271 13.8291C152.876 13.8291 149.314 17.4136 149.314 21.8339C149.314 26.2542 152.877 29.8387 157.271 29.8387C161.666 29.8387 165.229 26.2542 165.229 21.8339C165.229 17.4136 161.666 13.8291 157.271 13.8291ZM157.271 26.7378C154.583 26.7378 152.396 24.5384 152.396 21.8339C152.396 19.1294 154.583 16.93 157.271 16.93C159.96 16.93 162.146 19.1294 162.146 21.8339C162.146 24.5384 159.96 26.7378 157.271 26.7378Z" fill="black"/>
<path d="M77.9825 13.8291C76.17 13.8291 74.5046 14.4452 73.1669 15.4721V14.2733H70.0249V35.539H73.1669V28.1969C74.5046 29.2226 76.17 29.8399 77.9825 29.8399C82.3779 29.8399 85.9401 26.2554 85.9401 21.8351C85.9401 17.4148 82.3767 13.8303 77.9825 13.8303V13.8291ZM77.9825 26.7593C75.5575 26.7593 73.5527 24.9718 73.1669 22.6411V21.0267C73.5527 18.696 75.5575 16.9085 77.9825 16.9085C80.6829 16.9085 82.8788 19.1187 82.8788 21.8339C82.8788 24.5491 80.6817 26.7593 77.9825 26.7593Z" fill="black"/>
<path d="M181.089 15.4901C179.752 14.4644 178.086 13.8471 176.274 13.8471C171.878 13.8471 168.316 17.4316 168.316 21.8519C168.316 26.2721 171.88 29.8566 176.274 29.8566C178.086 29.8566 179.752 29.2405 181.089 28.2136V29.4124H184.231V8.14795H181.089V15.4901ZM176.274 26.7784C173.573 26.7784 171.377 24.5683 171.377 21.853C171.377 19.1378 173.573 16.9277 176.274 16.9277C178.699 16.9277 180.704 18.7151 181.089 21.0459V22.6602C180.704 24.991 178.699 26.7784 176.274 26.7784Z" fill="black"/>
<path d="M140.055 16.928C141.519 16.928 142.832 17.5811 143.729 18.608L146.936 17.8462C145.559 15.4581 142.997 13.8486 140.054 13.8486C135.659 13.8486 132.096 17.4331 132.096 21.8534C132.096 26.2737 135.66 29.8581 140.054 29.8581C142.912 29.8581 145.411 28.3369 146.814 26.0611C145.798 25.7208 144.77 25.3769 143.775 25.045C142.877 26.1041 141.542 26.7787 140.054 26.7787C137.354 26.7787 135.158 24.5698 135.158 21.8534C135.158 19.1369 137.355 16.928 140.055 16.928Z" fill="black"/>
<path d="M202.279 26.0765C201.265 25.735 200.238 25.3887 199.243 25.0544C198.342 26.1111 197.008 26.7833 195.518 26.7809C193.081 26.7774 191.064 24.972 190.696 22.6233L202.307 22.6436H202.96C202.984 22.3881 203 22.1302 203 21.8675C203 21.3302 202.944 20.8072 202.844 20.2997H202.848C202.846 20.2866 202.841 20.2735 202.838 20.2592C202.836 20.2448 202.835 20.2305 202.831 20.2162H202.828C202.076 16.5875 199.371 13.8556 195.54 13.8496C191.144 13.8424 187.576 17.4197 187.568 21.8412C187.561 26.2627 191.117 29.852 195.512 29.8603C198.371 29.8651 200.872 28.3487 202.278 26.0753L202.279 26.0765ZM195.535 16.9314C197.657 16.935 199.458 18.3081 200.132 20.2138C197.509 20.209 193.533 20.203 190.922 20.1983C191.602 18.295 193.411 16.9278 195.535 16.9314Z" fill="black"/>
<path d="M108.55 21.8342H108.543C108.543 24.5506 107.058 26.7596 104.359 26.7596C101.66 26.7596 100.209 24.5816 100.177 21.8927V14.2593H97.1123V21.8342C97.1123 26.2557 99.9634 29.839 104.358 29.839C106.209 29.839 107.197 29.1966 108.55 28.1303V29.4019H112.21V14.2604H108.55V21.8354V21.8342Z" fill="black"/>
<path d="M13.4593 35.5391C20.8926 35.5391 26.9185 29.4775 26.9185 22C26.9185 14.5226 20.8926 8.46094 13.4593 8.46094C6.02592 8.46094 0 14.5226 0 22C0 29.4775 6.02592 35.5391 13.4593 35.5391Z" fill="black"/>
<path d="M35.3405 0C29.3355 0 23.8968 2.43463 19.9453 6.37612C21.943 7.21552 23.7781 8.44776 25.3556 10.0334C28.5331 13.2299 30.2828 17.4794 30.2828 22C30.2828 26.5206 28.5331 30.7701 25.3556 33.9666C23.7781 35.5534 21.943 36.7845 19.9453 37.6239C23.8979 41.5654 29.3367 44 35.3405 44C47.4193 44 57.2108 34.1504 57.2108 22C57.2108 9.84955 47.4193 0 35.3405 0Z" fill="black"/>
</g>
<defs>
<clipPath id="clip0_70_41">
<rect width="203" height="44" fill="white"/>
</clipPath>
</defs>
</svg>
